<?xml version="1.0" encoding="utf-8"?>
<!-- Generator: Adobe Illustrator 16.0.0, SVG Export Plug-In . SVG Version: 6.00 Build 0)  -->
<!DOCTYPE svg PUBLIC "-//W3C//DTD SVG 1.1//EN" "http://www.w3.org/Graphics/SVG/1.1/DTD/svg11.dtd">
<svg version="1.1" id="Layer_1" xmlns="http://www.w3.org/2000/svg" xmlns:xlink="http://www.w3.org/1999/xlink" x="0px" y="0px"
	 width="40px" height="40px" viewBox="0 0 40 40" enable-background="new 0 0 40 40" xml:space="preserve">
<line fill="none" stroke="#FFFFFF" stroke-miterlimit="10" x1="19.935" y1="8.322" x2="19.935" y2="2.654"/>
<line fill="none" stroke="#FFFFFF" stroke-miterlimit="10" x1="11.791" y1="11.781" x2="7.785" y2="7.773"/>
<line fill="none" stroke="#FFFFFF" stroke-miterlimit="10" x1="8.479" y1="19.986" x2="2.813" y2="19.986"/>
<line fill="none" stroke="#FFFFFF" stroke-miterlimit="10" x1="11.939" y1="28.131" x2="7.933" y2="32.139"/>
<line fill="none" stroke="#FFFFFF" stroke-miterlimit="10" x1="20.145" y1="31.443" x2="20.145" y2="37.109"/>
<line fill="none" stroke="#FFFFFF" stroke-miterlimit="10" x1="28.289" y1="27.982" x2="32.295" y2="31.989"/>
<line fill="none" stroke="#FFFFFF" stroke-miterlimit="10" x1="31.602" y1="19.778" x2="37.268" y2="19.778"/>
<line fill="none" stroke="#FFFFFF" stroke-miterlimit="10" x1="28.141" y1="11.633" x2="32.146" y2="7.626"/>
<path fill="none" stroke="#FFFFFF" stroke-miterlimit="10" d="M19.935,12.664c-4,0-7.242,3.243-7.242,7.243
	c0,3.999,3.242,7.243,7.242,7.243c4,0,7.243-3.244,7.243-7.243C27.178,15.907,23.936,12.664,19.935,12.664z M19.935,25.314
	c-3.058,0-5.536-2.479-5.536-5.536c0-3.059,2.479-5.537,5.536-5.537c3.059,0,5.538,2.479,5.538,5.537
	C25.473,22.836,22.994,25.314,19.935,25.314z"/>
</svg>
